# xmcd
#
# Track frame offsets:
#	150
#	9545
#	21467
#	35870
#	50697
#	64347
#	75055
#	85275
#	99602
#	111235
#
# Disc length: 1645 seconds
#
# Revision: 0
# Processed by: cddbd v1.5.1PL0 Copyright (c) Steve Scherf et al.
# Submitted via: dBpowerAMP V4.0
#
DISCID=80066b0a
DTITLE=Varios - Super Hits Swing Volume I
DYEAR=2002
DGENRE=Swing
TTITLE0=Bandstand Boogie
TTITLE1=Leap Frog
TTITLE2=Woodchoppers Ball
TTITLE3=Minnie The Mocher´s Wedding Day
TTITLE4=Flying Home
TTITLE5=Oooh-Dahdily-Dah
TTITLE6=Take It Like A Man
TTITLE7=Thanks For The Boogie Ride
TTITLE8=Let´s Dance
TTITLE9=Sing You Sinners
EXTD=
EXTT0=
EXTT1=
EXTT2=
EXTT3=
EXTT4=
EXTT5=
EXTT6=
EXTT7=
EXTT8=
EXTT9=
PLAYORDER=
